<svg width="17" height="17" viewBox="0 0 17 17" fill="none" xmlns="http://www.w3.org/2000/svg">
<g opacity="0.7">
<path d="M7.47829 3.34235C7.47829 2.31397 6.64185 1.47754 5.61347 1.47754C4.58479 1.47754 3.74805 2.31397 3.74805 3.34235C3.74805 4.37073 4.58479 5.20717 5.61347 5.20717C6.64185 5.20747 7.47829 4.37073 7.47829 3.34235ZM4.78558 3.34235C4.78558 2.88614 5.15696 2.51507 5.61347 2.51507C6.06999 2.51507 6.44075 2.88614 6.44075 3.34235C6.44075 3.79856 6.06999 4.16964 5.61347 4.16964C5.15696 4.16964 4.78558 3.79856 4.78558 3.34235Z" fill="#010101"/>
<path d="M11.2261 5.12878H8.46048C8.79219 4.52182 9.0238 3.91944 9.0238 3.41166C9.0238 1.53067 7.49344 0 5.61306 0C3.73207 0 2.20201 1.53067 2.20201 3.41166C2.20201 3.91944 2.43332 4.52182 2.76533 5.12878H0V16.596H10.1886H11.2261H14.946C16.0787 16.596 17 15.6744 17 14.542V8.03509L11.2261 8.03418V5.12878ZM5.61306 1.03784C6.92127 1.03784 7.98596 2.10253 7.98596 3.41166C7.98596 4.30912 6.65487 6.08972 5.61306 7.24931C4.57125 6.08972 3.23985 4.30912 3.23985 3.41166C3.23985 2.10253 4.30424 1.03784 5.61306 1.03784ZM10.1886 15.5584H1.03784V6.16631H3.34361V6.06317C4.13061 7.20415 5.065 8.19072 5.23955 8.37138L5.61337 8.75923L5.98718 8.37138C6.16112 8.19042 7.09521 7.20476 7.88191 6.06408V6.16601H10.1886V8.03387V15.5584ZM15.9628 9.07293V14.542C15.9628 15.1025 15.5069 15.5584 14.9463 15.5584H11.2261V9.07202L15.9628 9.07293Z" fill="#010101"/>
<path d="M4.53949 12.6328H3.50195V14.5431H4.53949V12.6328Z" fill="#010101"/>
<path d="M4.53949 8.8125H3.50195V10.7228H4.53949V8.8125Z" fill="#010101"/>
<path d="M7.72503 12.6328H6.6875V14.5431H7.72503V12.6328Z" fill="#010101"/>
<path d="M7.72503 8.8125H6.6875V10.7228H7.72503V8.8125Z" fill="#010101"/>
<path d="M14.6462 10.499H12.6172V11.5366H14.6462V10.499Z" fill="#010101"/>
<path d="M14.6462 13.0459H12.6172V14.0834H14.6462V13.0459Z" fill="#010101"/>
</g>
</svg>
